<svg width="456" height="141" viewBox="0 0 456 141" fill="none" xmlns="http://www.w3.org/2000/svg">
<rect x="221" width="211" height="139" rx="12" fill="#229BB6"/>
<path d="M3.072 103L33.408 30.712H33.984L64.32 103H53.568L46.368 84.76H19.68L12.288 103H3.072ZM22.944 76.696H43.2L33.312 51.448L22.944 76.696ZM77.2965 103V33.592H96.3045C103.153 33.592 108.977 34.648 113.777 36.76C118.577 38.808 122.449 41.56 125.393 45.016C128.401 48.472 130.577 52.312 131.921 56.536C133.329 60.696 134.033 64.888 134.033 69.112C134.033 74.296 133.105 79 131.249 83.224C129.393 87.384 126.865 90.936 123.665 93.88C120.465 96.824 116.785 99.096 112.625 100.696C108.529 102.232 104.209 103 99.6645 103H77.2965ZM86.6085 93.976H97.8405C102.897 93.976 107.409 92.984 111.377 91C115.409 89.016 118.577 86.136 120.881 82.36C123.185 78.52 124.337 73.88 124.337 68.44C124.337 62.808 123.121 58.072 120.689 54.232C118.321 50.392 115.153 47.48 111.185 45.496C107.281 43.512 103.121 42.52 98.7045 42.52H86.6085V93.976ZM145.352 68.344C145.352 63.544 146.248 59 148.04 54.712C149.896 50.424 152.456 46.648 155.72 43.384C158.984 40.12 162.728 37.56 166.952 35.704C171.24 33.784 175.816 32.824 180.68 32.824C185.544 32.824 190.12 33.784 194.408 35.704C198.76 37.56 202.568 40.12 205.832 43.384C209.096 46.648 211.656 50.424 213.512 54.712C215.368 59 216.296 63.544 216.296 68.344C216.296 73.272 215.368 77.88 213.512 82.168C211.656 86.392 209.096 90.136 205.832 93.4C202.568 96.664 198.76 99.224 194.408 101.08C190.12 102.872 185.544 103.768 180.68 103.768C175.816 103.768 171.24 102.872 166.952 101.08C162.728 99.288 158.984 96.792 155.72 93.592C152.456 90.392 149.896 86.648 148.04 82.36C146.248 78.008 145.352 73.336 145.352 68.344ZM154.952 68.44C154.952 72.088 155.624 75.512 156.968 78.712C158.312 81.848 160.168 84.632 162.536 87.064C164.904 89.496 167.656 91.384 170.792 92.728C173.928 94.072 177.32 94.744 180.968 94.744C185.767 94.744 190.087 93.592 193.927 91.288C197.832 88.92 200.936 85.752 203.24 81.784C205.544 77.752 206.696 73.272 206.696 68.344C206.696 64.696 206.024 61.272 204.68 58.072C203.336 54.808 201.48 51.96 199.112 49.528C196.744 47.096 193.992 45.208 190.856 43.864C187.72 42.456 184.36 41.752 180.776 41.752C175.912 41.752 171.528 42.968 167.624 45.4C163.72 47.832 160.616 51.064 158.312 55.096C156.072 59.128 154.952 63.576 154.952 68.44ZM250.608 33.592C258.096 33.592 263.984 35.48 268.272 39.256C272.56 43.032 274.704 48.312 274.704 55.096C274.704 57.848 274.288 60.568 273.456 63.256C272.624 65.88 271.28 68.28 269.424 70.456C267.632 72.568 265.264 74.296 262.32 75.64C259.376 76.92 255.792 77.56 251.568 77.56H241.296V103H231.984V33.592H250.608ZM251.568 68.44C254.256 68.44 256.496 68.024 258.288 67.192C260.08 66.296 261.488 65.144 262.512 63.736C263.6 62.328 264.368 60.888 264.816 59.416C265.264 57.88 265.488 56.504 265.488 55.288C265.488 53.432 265.04 51.512 264.144 49.528C263.312 47.544 261.904 45.88 259.92 44.536C258 43.192 255.376 42.52 252.048 42.52H241.296V68.44H251.568ZM375.115 33.592H421.195V42.52H402.571V103H393.259V42.52H375.115V33.592Z" fill="#CC0052"/>
<g clip-path="url(#clip0)">
<path d="M334.313 69.5C334.313 55.0759 312.014 34.625 297.939 34.625C291.6 34.625 287.813 39.4948 287.813 47.6559C287.813 56.5272 292.368 62.3851 292.368 69.5C292.368 76.6766 287.813 82.5509 287.813 91.3441C287.813 99.5052 291.6 104.375 297.939 104.375C312.014 104.375 334.313 83.9241 334.313 69.5ZM336.603 42.748C342.897 40.8589 346.973 35.0391 345.709 29.7498C344.444 24.4604 338.318 21.7049 332.024 23.594C325.73 25.483 321.654 31.3028 322.918 36.5922C324.182 41.8815 330.309 44.637 336.603 42.748V42.748ZM340.377 58.1366C341.856 63.7565 349.449 66.5683 357.335 64.4177C365.222 62.2671 370.415 55.9678 368.937 50.3478C367.458 44.7279 359.866 41.9161 351.979 44.0667C344.092 46.2173 338.897 52.5184 340.377 58.1366ZM345.707 109.248C346.971 103.959 342.895 98.1411 336.601 96.2502C330.307 94.3612 324.181 97.1166 322.916 102.406C321.652 107.695 325.728 113.513 332.022 115.404C338.316 117.293 344.443 114.538 345.707 109.248V109.248ZM340.377 80.8634C338.899 86.4834 344.092 92.7827 351.979 94.9333C359.866 97.0839 367.456 94.2722 368.937 88.6522C370.417 83.0322 365.222 76.7329 357.335 74.5823C349.449 72.4317 341.856 75.2435 340.377 80.8634V80.8634Z" fill="#C2E6EE"/>
</g>
<path d="M250.608 33.592C258.096 33.592 263.984 35.48 268.272 39.256C272.56 43.032 274.704 48.312 274.704 55.096C274.704 57.848 274.288 60.568 273.456 63.256C272.624 65.88 271.28 68.28 269.424 70.456C267.632 72.568 265.264 74.296 262.32 75.64C259.376 76.92 255.792 77.56 251.568 77.56H241.296V103H231.984V33.592H250.608ZM251.568 68.44C254.256 68.44 256.496 68.024 258.288 67.192C260.08 66.296 261.488 65.144 262.512 63.736C263.6 62.328 264.368 60.888 264.816 59.416C265.264 57.88 265.488 56.504 265.488 55.288C265.488 53.432 265.04 51.512 264.144 49.528C263.312 47.544 261.904 45.88 259.92 44.536C258 43.192 255.376 42.52 252.048 42.52H241.296V68.44H251.568ZM375.115 33.592H421.195V42.52H402.571V103H393.259V42.52H375.115V33.592Z" fill="white"/>
<defs>
<clipPath id="clip0">
<rect width="93" height="93" fill="white" transform="translate(375 23) rotate(90)"/>
</clipPath>
</defs>
</svg>
